<?xml version="1.0" standalone="no"?>
<!DOCTYPE svg PUBLIC "-//W3C//DTD SVG 20010904//EN"
 "http://www.w3.org/TR/2001/REC-SVG-20010904/DTD/svg10.dtd">
<svg version="1.0" xmlns="http://www.w3.org/2000/svg"
 width="1266.000000pt" height="1266.000000pt" viewBox="0 0 1266.000000 1266.000000"
 preserveAspectRatio="xMidYMid meet">
<metadata>
Created by potrace 1.11, written by Peter Selinger 2001-2013
</metadata>
<g transform="translate(0.000000,1266.000000) scale(0.100000,-0.100000)"
fill="#000000" stroke="none">
<path d="M3508 12335 c-43 -19 -78 -32 -78 -30 0 3 -9 -3 -20 -13 -12 -9 -23
-15 -27 -14 -3 2 -9 0 -12 -5 -11 -15 -73 -43 -82 -37 -5 3 -9 0 -9 -5 0 -6
-7 -11 -15 -11 -8 0 -15 -4 -15 -8 0 -4 -23 -16 -51 -27 -28 -11 -53 -25 -56
-32 -2 -6 -12 -10 -21 -9 -8 2 -24 -4 -34 -13 -10 -9 -21 -14 -25 -13 -3 2 -9
0 -12 -5 -11 -15 -73 -43 -82 -37 -5 3 -9 0 -9 -5 0 -6 -7 -11 -15 -11 -8 0
-15 -4 -15 -10 0 -5 -5 -10 -10 -10 -6 0 -27 -11 -48 -23 -20 -13 -43 -22 -51
-19 -8 3 -11 0 -7 -6 3 -6 -7 -13 -24 -17 -16 -4 -34 -13 -38 -22 -5 -8 -12
-14 -16 -13 -12 4 -66 -22 -66 -31 0 -5 -7 -9 -15 -9 -8 0 -15 -5 -15 -12 0
-6 -3 -8 -7 -5 -8 9 -36 -30 -29 -41 2 -4 1 -14 -4 -22 -5 -9 -5 -19 2 -27 7
-9 7 -13 -2 -13 -9 0 -9 -4 -2 -13 7 -8 7 -18 2 -27 -5 -9 -5 -19 2 -27 7 -9
7 -13 -2 -13 -9 0 -9 -4 -2 -13 7 -8 7 -18 2 -27 -5 -9 -5 -19 2 -27 7 -9 7
-13 -2 -13 -9 0 -9 -4 -2 -13 7 -8 7 -18 2 -27 -5 -9 -5 -19 2 -27 7 -9 7 -13
-2 -13 -9 0 -9 -4 -2 -13 7 -8 7 -18 2 -27 -5 -9 -5 -19 2 -27 7 -9 7 -13 -2
-13 -9 0 -9 -4 -2 -13 7 -8 7 -18 2 -27 -5 -8 -6 -19 -2 -24 3 -6 7 -21 8 -34
4 -31 40 -60 139 -113 44 -23 83 -47 87 -53 4 -6 8 -7 8 -3 0 4 20 -4 45 -18
25 -14 52 -25 60 -25 8 0 15 -3 15 -7 0 -5 29 -21 65 -37 36 -16 65 -33 65
-39 0 -6 3 -8 6 -5 3 4 55 -18 116 -48 l110 -55 -6 -37 c-3 -20 -8 -71 -11
-112 -3 -41 -8 -91 -10 -110 -2 -19 -7 -64 -10 -100 -3 -36 -8 -85 -10 -110
-2 -25 -7 -74 -10 -110 -3 -36 -7 -81 -10 -100 -2 -19 -7 -71 -10 -114 -4 -44
-8 -93 -10 -110 -2 -17 -6 -65 -10 -106 -3 -41 -8 -93 -10 -115 -6 -51 -13
-131 -21 -225 -3 -41 -8 -77 -10 -79 -2 -2 0 -9 6 -15 6 -8 2 -12 -12 -13 -12
-1 -24 -6 -27 -11 -3 -6 -15 -12 -26 -14 -11 -1 -27 -10 -35 -19 -8 -9 -21
-14 -27 -12 -7 3 -16 -2 -19 -11 -3 -8 -12 -12 -19 -10 -7 3 -16 0 -20 -5 -3
-6 -11 -9 -16 -6 -5 4 -9 1 -9 -5 0 -10 -48 -35 -62 -32 -5 1 -8 -2 -8 -8 0
-6 -3 -10 -7 -9 -17 2 -53 -14 -53 -24 0 -6 -3 -8 -6 -4 -9 8 -195 -91 -216
-115 -10 -11 -18 -17 -18 -12 0 4 -5 3 -10 -2 -7 -7 -11 -112 -11 -283 -1
-262 0 -274 20 -292 11 -10 25 -19 31 -19 5 0 10 -4 10 -10 0 -5 7 -10 15 -10
7 0 19 -8 24 -17 6 -10 11 -14 11 -10 0 4 10 2 22 -5 13 -7 26 -11 31 -10 4 1
7 -3 7 -9 0 -5 5 -7 10 -4 6 3 10 1 10 -5 0 -7 7 -10 15 -6 9 3 15 0 15 -10 0
-8 4 -13 9 -10 5 3 41 -12 81 -34 40 -22 79 -40 86 -40 8 0 14 -4 14 -8 0 -8
60 -36 73 -33 5 1 6 -26 3 -59 -3 -33 -8 -88 -11 -122 -14 -164 -17 -176 -51
-255 -8 -17 -14 -36 -14 -42 0 -6 -4 -11 -10 -11 -5 0 -9 -3 -8 -7 2 -12 -13
-64 -32 -108 -10 -22 -24 -58 -33 -80 -8 -22 -31 -80 -50 -130 -20 -49 -47
-121 -61 -160 -15 -38 -30 -79 -36 -90 -22 -47 -58 -145 -53 -145 3 0 -1 -7
-8 -16 -7 -9 -14 -24 -16 -35 -2 -10 -11 -38 -22 -61 -11 -24 -42 -104 -71
-178 -53 -141 -59 -156 -80 -205 -8 -16 -14 -36 -16 -43 -4 -19 -47 -81 -55
-79 -4 1 -7 0 -7 -3 1 -3 -22 -28 -50 -57 -28 -28 -48 -53 -46 -56 2 -2 -7
-24 -21 -48 -13 -24 -25 -52 -25 -61 0 -10 -5 -18 -11 -18 -5 0 -7 -4 -4 -10
3 -6 1 -10 -4 -10 -8 0 -11 -839 -11 -2769 l0 -2769 22 -59 c12 -32 25 -60 29
-63 8 -6 24 -52 21 -62 -1 -5 5 -8 13 -8 8 0 15 -6 15 -12 1 -14 66 -88 78
-88 4 0 13 -9 20 -20 7 -11 19 -20 27 -20 8 0 15 -5 15 -11 0 -9 45 -30 63
-28 5 0 17 -9 26 -20 10 -11 21 -18 24 -15 3 3 20 -1 38 -10 29 -15 350 -16
3650 -16 2291 0 3620 4 3624 10 3 5 12 7 20 3 8 -3 15 0 15 6 0 6 3 10 8 10 4
-1 23 4 42 12 19 7 38 12 43 11 4 -1 7 2 7 8 0 5 14 17 32 26 17 9 40 25 51
35 12 10 25 19 31 19 5 0 6 3 3 7 -4 3 5 15 20 25 16 10 24 18 18 18 -6 0 -6
3 1 8 20 14 64 79 57 85 -3 4 -1 7 5 7 7 0 11 3 10 8 -1 4 9 30 23 57 l24 50
3 2765 c2 2036 -1 2773 -9 2795 -6 17 -20 49 -30 72 -11 24 -19 47 -19 52 0 5
-7 14 -15 21 -8 7 -12 16 -9 21 3 5 1 9 -5 9 -5 0 -13 9 -16 20 -3 11 -13 20
-21 20 -8 0 -14 8 -14 18 0 10 -4 22 -8 27 -5 6 -15 30 -22 55 -8 25 -14 47
-15 50 -1 3 -4 12 -7 20 -5 13 -62 187 -205 630 -14 41 -26 80 -27 85 -2 6 -6
17 -9 25 -3 8 -20 60 -37 115 -18 55 -38 116 -46 135 -8 19 -16 44 -18 55 -3
11 -12 40 -20 65 -26 74 -108 324 -110 335 -1 6 -4 15 -7 20 -3 6 -11 30 -18
55 -8 25 -16 52 -19 60 -3 8 -6 20 -8 25 -1 6 -12 37 -23 70 -20 56 -21 61 -4
72 9 7 23 13 30 13 7 0 13 5 13 10 0 6 9 10 19 10 11 0 21 4 23 9 2 5 12 11
23 13 11 1 22 6 25 9 8 10 90 50 90 44 0 -3 10 3 22 14 11 11 24 18 28 16 4
-3 20 7 36 22 16 15 30 26 31 26 2 -1 12 1 23 4 13 3 21 15 22 32 2 28 4 50 8
66 8 31 4 141 -5 147 -7 5 -7 8 1 8 8 0 10 95 4 195 -1 6 1 19 3 30 2 11 0 30
-4 43 -5 14 -5 22 2 22 6 0 6 6 0 19 -6 10 -7 21 -4 25 3 3 -1 6 -11 6 -9 0
-27 10 -39 23 -12 12 -29 23 -37 25 -8 2 -17 7 -20 11 -3 4 -12 6 -20 6 -8 0
-23 7 -33 16 -10 9 -35 22 -57 29 -22 7 -40 17 -40 22 0 4 -9 8 -19 8 -11 0
-21 3 -23 8 -4 10 -81 46 -92 43 -4 -1 -17 8 -27 20 -10 12 -19 19 -19 15 0
-9 -80 32 -80 42 -3 81 -11 201 -15 220 -2 13 -7 72 -10 130 -4 59 -8 118 -10
132 -2 14 -6 63 -10 110 -3 47 -8 103 -10 125 -2 22 -7 78 -10 125 -3 47 -10
135 -15 195 -5 61 -12 142 -15 180 -11 141 -16 201 -21 258 -3 36 -2 57 4 53
6 -3 12 0 15 8 3 8 19 17 36 21 17 4 31 10 31 15 0 8 48 25 63 22 4 -1 7 3 7
9 0 5 4 8 9 5 5 -4 11 -3 13 2 1 4 35 23 73 41 39 19 77 37 85 42 8 5 40 20
70 35 30 14 57 29 60 33 3 3 28 17 55 30 28 13 61 36 75 50 l25 26 3 254 3
253 -28 27 c-15 14 -59 42 -98 61 -38 19 -71 38 -73 43 -2 4 -10 7 -18 7 -8 0
-14 5 -14 11 0 6 -6 9 -14 6 -8 -3 -17 1 -20 9 -3 9 -10 13 -15 10 -5 -4 -11
-1 -13 4 -2 6 -13 12 -25 13 -13 0 -24 6 -27 12 -2 6 -22 17 -45 25 -24 8 -38
17 -34 24 3 6 2 8 -2 3 -5 -4 -19 0 -32 8 -13 9 -23 12 -23 9 0 -4 -9 1 -19
10 -11 10 -25 15 -30 11 -6 -3 -11 1 -11 10 0 9 -5 13 -11 10 -5 -4 -18 -1
-27 7 -27 21 -61 38 -77 38 -8 0 -15 5 -15 11 0 5 -4 8 -9 5 -5 -4 -11 -3 -13
1 -4 11 -75 43 -93 43 -8 0 -15 5 -15 10 0 6 -9 10 -20 10 -11 0 -20 4 -20 9
0 8 -37 24 -52 22 -5 -1 -8 3 -8 9 0 5 -7 7 -15 4 -8 -4 -15 -1 -15 5 0 6 -3
10 -7 9 -5 -1 -18 4 -31 11 -26 14 -102 6 -102 -10 0 -6 -4 -7 -10 -4 -5 3
-10 1 -10 -5 0 -6 -4 -8 -10 -5 -5 3 -10 1 -10 -6 0 -7 -3 -9 -7 -6 -3 4 -17
0 -30 -8 -13 -9 -23 -13 -23 -10 0 4 -13 -3 -29 -14 -15 -11 -31 -18 -35 -14
-3 3 -6 1 -6 -6 0 -7 -4 -10 -9 -6 -5 3 -12 1 -16 -5 -4 -6 -10 -8 -15 -5 -4
3 -11 -2 -14 -11 -4 -9 -13 -14 -21 -10 -8 3 -15 1 -15 -4 0 -6 -6 -10 -14
-10 -8 0 -16 -5 -18 -10 -2 -6 -13 -12 -26 -13 -12 0 -22 -4 -22 -7 0 -7 -68
-42 -89 -46 -8 -1 -17 -8 -21 -14 -4 -6 -16 -12 -28 -13 -12 0 -24 -7 -27 -15
-3 -7 -9 -10 -15 -7 -5 3 -10 1 -10 -4 0 -6 -7 -11 -15 -11 -8 0 -15 -5 -15
-11 0 -5 -5 -7 -10 -4 -6 4 -17 1 -25 -5 -8 -7 -15 -9 -15 -4 0 4 -6 0 -13
-10 -7 -9 -22 -18 -35 -19 -12 0 -22 -5 -22 -10 0 -4 -4 -6 -9 -3 -5 3 -12 -1
-15 -10 -4 -9 -13 -14 -21 -10 -8 3 -15 1 -15 -4 0 -6 -7 -10 -15 -10 -8 0
-15 -4 -15 -9 0 -5 -12 -12 -27 -16 -16 -3 -36 -14 -45 -22 -10 -9 -18 -13
-18 -9 0 4 -14 -2 -31 -14 -16 -12 -33 -20 -36 -16 -3 3 -11 -1 -17 -8 -6 -8
-20 -16 -31 -18 -11 -2 -26 -9 -33 -15 -7 -7 -20 -13 -28 -13 -8 0 -14 -4 -14
-8 0 -8 -60 -36 -72 -33 -5 0 -8 -3 -8 -8 0 -5 -20 -17 -45 -28 -25 -10 -45
-21 -45 -25 0 -5 -9 -8 -20 -8 -11 0 -23 -6 -26 -13 -3 -8 -11 -14 -19 -15 -8
-1 -22 -3 -30 -4 -8 -1 -17 -8 -19 -15 -3 -8 -10 -11 -16 -8 -5 3 -10 1 -10
-5 0 -6 -4 -8 -10 -5 -5 3 -10 2 -10 -3 0 -9 -21 -19 -60 -27 -8 -2 -16 -9
-18 -15 -2 -5 -8 -8 -13 -4 -5 3 -9 0 -9 -6 0 -7 -7 -10 -15 -6 -8 3 -15 1
-15 -4 0 -8 -104 -62 -123 -64 -4 -1 -12 -8 -17 -16 -5 -8 -10 -12 -10 -8 0 7
-72 -20 -80 -31 -10 -12 -88 -51 -104 -51 -9 0 -16 -5 -16 -11 0 -5 -4 -8 -10
-4 -5 3 -18 -3 -30 -15 -11 -11 -20 -17 -20 -13 0 4 -5 2 -12 -5 -7 -7 -20
-12 -30 -12 -10 0 -21 -7 -24 -15 -4 -8 -10 -12 -16 -9 -5 3 -18 -2 -30 -13
-11 -10 -22 -17 -24 -15 -6 4 -109 -50 -112 -59 -2 -4 -9 -6 -17 -3 -7 3 -22
-3 -33 -13 -18 -18 -35 -25 -59 -26 -7 0 -15 -7 -17 -14 -3 -8 -10 -11 -16 -8
-5 3 -10 1 -10 -6 0 -7 -3 -10 -6 -6 -4 3 -13 0 -21 -8 -8 -8 -23 -15 -34 -15
-10 0 -19 -5 -19 -10 0 -6 -3 -10 -7 -9 -15 2 -53 -13 -53 -21 0 -5 -13 -11
-30 -15 -16 -4 -30 -11 -30 -16 0 -6 -3 -8 -8 -6 -4 3 -25 -4 -47 -14 l-40
-20 -50 23 c-27 13 -53 27 -56 31 -3 5 -10 9 -15 9 -5 0 -31 11 -59 23 -27 13
-54 24 -60 25 -5 1 -17 8 -26 16 -9 8 -26 16 -38 17 -11 1 -23 7 -26 15 -3 7
-9 10 -15 7 -5 -3 -10 -1 -10 6 0 7 -3 10 -6 6 -4 -3 -13 1 -21 9 -8 8 -18 12
-23 9 -4 -3 -13 2 -20 10 -7 8 -21 15 -31 15 -11 0 -19 5 -19 10 0 6 -9 10
-20 10 -11 0 -20 5 -20 11 0 5 -4 8 -9 4 -5 -3 -15 1 -23 8 -15 15 -49 31 -60
29 -5 -1 -8 3 -8 10 0 6 -3 8 -6 5 -4 -4 -19 2 -34 13 -16 11 -35 20 -44 20
-9 0 -16 4 -16 10 0 5 -6 7 -14 4 -7 -3 -20 2 -29 10 -9 9 -23 16 -31 16 -9 0
-16 5 -16 11 0 6 -7 9 -15 5 -8 -3 -15 -1 -15 5 0 5 -13 15 -30 20 -16 6 -30
15 -30 20 0 5 -3 8 -7 7 -12 -4 -103 36 -103 45 0 4 -9 7 -20 7 -11 0 -20 5
-20 10 0 6 -9 10 -20 10 -11 0 -20 4 -20 8 0 5 -18 15 -40 22 -22 7 -40 17
-40 22 0 4 -9 8 -20 8 -11 0 -20 5 -20 10 0 6 -9 10 -20 10 -11 0 -20 5 -20
10 0 6 -9 10 -20 10 -11 0 -20 5 -20 11 0 6 -6 9 -14 6 -8 -3 -17 1 -20 9 -3
8 -11 14 -19 14 -18 0 -67 23 -67 33 0 4 -9 7 -20 7 -11 0 -20 5 -20 11 0 6
-7 9 -15 5 -8 -3 -15 -1 -15 5 0 5 -13 15 -30 20 -16 6 -30 15 -30 20 0 5 -3
8 -7 7 -13 -5 -103 33 -103 43 0 5 -9 9 -20 9 -11 0 -20 5 -20 10 0 6 -9 10
-20 10 -11 0 -20 5 -20 10 0 6 -11 10 -24 10 -13 0 -26 3 -28 8 -5 11 -88 54
-88 45 0 -4 -5 -1 -10 8 -5 8 -27 21 -50 29 -22 7 -40 17 -40 22 0 4 -9 8 -20
8 -11 0 -20 4 -20 10 0 5 -7 7 -15 4 -8 -4 -15 -1 -15 6 0 6 -4 9 -9 6 -5 -4
-11 -1 -13 4 -2 6 -10 13 -18 15 -39 8 -60 18 -60 27 0 5 -4 7 -9 4 -5 -3 -14
1 -21 9 -7 8 -16 13 -20 10 -4 -3 -13 2 -20 10 -7 8 -16 13 -20 10 -4 -3 -13
2 -20 10 -7 8 -16 12 -21 9 -5 -3 -9 0 -9 6 0 6 -4 8 -10 5 -5 -3 -10 -1 -10
5 0 6 -5 8 -10 5 -6 -3 -12 0 -15 7 -3 8 -15 15 -27 15 -12 1 -24 7 -28 13 -4
6 -13 13 -21 15 -36 8 -59 18 -59 25 0 4 -18 13 -40 20 -22 7 -40 17 -40 22 0
4 -7 8 -15 8 -8 0 -15 5 -15 11 0 5 -5 7 -11 4 -5 -4 -18 -1 -27 7 -60 48 -91
48 -194 3z m5587 -1475 c-3 -5 0 -10 7 -11 7 0 8 -3 2 -5 -5 -2 -9 -18 -8 -34
1 -17 -2 -30 -7 -30 -8 0 -5 -95 6 -210 2 -25 6 -81 10 -125 3 -44 8 -109 11
-145 8 -86 10 -117 19 -230 3 -52 8 -106 10 -120 2 -14 6 -68 10 -120 8 -125
15 -183 25 -195 5 -6 5 -17 0 -25 -8 -12 -10 -12 -10 4 0 11 -3 17 -6 13 -4
-3 -25 3 -48 15 -22 11 -41 20 -41 19 0 -1 -13 3 -30 9 -16 7 -37 13 -47 15
-9 2 -31 12 -50 21 -18 10 -35 19 -38 19 -3 1 -35 15 -73 33 -37 17 -70 30
-73 29 -3 -1 -10 5 -15 14 -5 9 -25 20 -44 23 -19 4 -35 11 -35 16 0 6 -9 10
-20 10 -11 0 -20 5 -20 10 0 6 -9 10 -20 10 -11 0 -20 5 -20 10 0 6 -9 10 -20
10 -11 0 -20 4 -20 8 0 5 -18 15 -40 22 -22 7 -40 17 -40 22 0 4 -9 8 -20 8
-11 0 -20 4 -20 9 0 8 -37 24 -52 22 -5 -1 -8 4 -8 10 0 5 -4 7 -10 4 -5 -3
-10 -1 -10 5 0 6 -4 9 -9 5 -5 -3 -13 -1 -16 5 -7 12 -76 42 -85 38 -3 -2 -16
7 -29 19 -13 12 -28 20 -33 17 -4 -3 -8 -1 -8 5 0 6 -7 8 -15 5 -8 -4 -15 -1
-15 5 0 6 -7 11 -15 11 -15 0 -55 19 -65 31 -4 5 -33 19 -50 24 -20 6 -67 32
-78 42 -7 7 -19 13 -25 13 -8 0 -8 3 -2 8 6 4 10 13 10 20 0 6 3 11 7 10 4 -2
13 6 21 16 8 11 19 16 25 12 7 -4 12 -2 12 4 0 6 5 8 10 5 6 -3 10 -2 10 4 0
5 10 13 22 17 12 3 28 13 36 20 7 8 18 12 23 9 5 -4 9 -2 9 3 0 5 20 17 45 28
25 10 45 21 45 25 0 6 43 21 46 16 1 -1 11 6 21 16 11 9 23 14 26 10 4 -3 7
-1 7 5 0 7 3 11 8 10 4 -1 27 9 52 22 25 13 47 25 50 26 3 1 15 5 27 9 13 4
20 11 17 16 -5 8 17 14 39 10 4 0 7 4 7 11 0 6 3 9 6 5 4 -3 27 8 51 24 24 17
47 28 50 25 3 -3 12 2 20 10 8 8 18 12 23 9 4 -3 11 2 14 11 3 8 10 13 15 9 6
-3 13 0 18 7 8 14 79 49 89 45 3 -1 10 6 15 16 6 9 14 15 20 12 5 -4 9 -2 9 2
0 9 63 36 76 33 4 -1 10 2 13 7 8 12 131 75 131 67 0 -3 12 4 26 15 28 22 50
28 39 11z m-5456 -53 c9 4 13 3 9 -1 -3 -4 35 -28 85 -54 51 -25 94 -49 95
-54 2 -4 12 -8 23 -8 10 0 19 -4 19 -10 0 -5 6 -10 14 -10 7 0 19 -7 26 -15 7
-8 16 -13 20 -10 5 3 11 1 15 -5 4 -6 11 -8 16 -5 5 4 9 -1 9 -9 0 -9 3 -15 8
-15 14 3 72 -23 72 -33 0 -5 4 -7 9 -3 5 3 15 -1 23 -8 13 -13 42 -27 54 -26
4 0 10 -4 14 -10 3 -6 17 -14 31 -16 13 -3 25 -9 27 -15 2 -6 7 -8 12 -5 5 3
14 -1 22 -8 15 -15 49 -31 61 -29 4 1 7 -3 7 -10 0 -6 3 -8 6 -5 4 4 19 -2 34
-13 16 -11 35 -20 44 -20 9 0 16 -4 16 -10 0 -5 9 -10 20 -10 11 0 20 -4 20
-10 0 -5 7 -10 16 -10 8 0 13 -4 10 -8 -2 -4 5 -9 16 -9 12 -1 24 -7 28 -13 4
-6 16 -12 28 -13 12 0 24 -7 27 -15 3 -7 9 -10 15 -7 5 3 10 3 10 -2 0 -4 18
-17 40 -27 24 -12 39 -25 36 -32 -3 -7 0 -15 7 -17 7 -3 0 -8 -15 -12 -16 -4
-28 -11 -28 -16 0 -5 -7 -9 -15 -9 -8 0 -15 -4 -15 -8 0 -4 -17 -14 -37 -21
-21 -8 -50 -22 -65 -33 -15 -10 -30 -18 -35 -17 -13 3 -47 -14 -58 -29 -6 -7
-15 -12 -20 -11 -6 2 -20 -2 -31 -9 -12 -6 -25 -8 -29 -4 -5 4 -5 1 -1 -5 6
-12 -4 -17 -26 -15 -3 1 -12 -5 -18 -13 -7 -8 -18 -15 -24 -15 -15 0 -100 -43
-104 -53 -2 -4 -8 -5 -13 -1 -5 3 -9 0 -9 -6 0 -6 -4 -8 -10 -5 -5 3 -10 1
-10 -5 0 -6 -4 -8 -10 -5 -5 3 -10 1 -10 -5 0 -6 -5 -8 -10 -5 -6 3 -13 0 -16
-9 -3 -8 -12 -12 -20 -9 -8 3 -14 0 -14 -7 0 -6 -4 -9 -9 -6 -5 3 -14 -1 -21
-9 -7 -8 -16 -12 -21 -9 -5 3 -9 0 -9 -6 0 -6 -4 -8 -10 -5 -5 3 -10 1 -10 -5
0 -6 -4 -8 -10 -5 -5 3 -10 1 -10 -5 0 -6 -4 -8 -10 -5 -5 3 -10 1 -10 -6 0
-7 -3 -9 -6 -6 -4 4 -21 -4 -38 -16 -17 -12 -33 -21 -36 -20 -9 4 -70 -21 -70
-29 0 -4 -3 -7 -7 -6 -5 1 -20 -6 -35 -16 -15 -10 -32 -15 -38 -11 -5 3 -10 1
-10 -4 0 -6 -5 -11 -11 -11 -7 0 -18 -8 -25 -17 -8 -11 -13 -13 -14 -6 0 9
-11 7 -34 -6 -19 -11 -37 -17 -40 -14 -3 4 -6 0 -6 -7 0 -7 -3 -10 -6 -7 -4 3
-16 2 -26 -4 -20 -11 -20 -8 -14 58 4 37 9 93 12 123 2 30 7 75 9 100 3 25 7
68 9 95 3 28 8 79 11 115 3 36 8 90 11 120 2 30 7 80 9 110 3 30 7 80 10 110
3 30 8 80 11 110 11 89 12 154 2 173 -5 11 -5 17 2 17 5 0 9 3 9 8 -3 19 2 25
12 15 6 -6 19 -9 28 -6z m2635 -1369 c-6 -10 -5 -10 7 -1 8 6 21 11 29 9 30
-5 65 -19 71 -28 3 -5 16 -10 27 -11 12 -1 22 -8 22 -16 0 -8 3 -11 6 -8 4 3
16 1 28 -5 11 -7 25 -12 29 -13 4 0 11 -5 15 -11 4 -6 15 -10 25 -8 9 1 17 -1
17 -6 0 -9 61 -36 73 -32 5 1 6 -1 3 -6 -3 -5 16 -19 42 -31 48 -23 60 -29
117 -61 18 -10 36 -16 39 -13 3 4 6 0 6 -7 0 -7 3 -10 7 -7 3 4 15 0 25 -10
10 -9 18 -13 18 -10 0 4 16 -2 35 -13 20 -11 42 -20 51 -20 8 0 12 -4 9 -10
-3 -5 3 -10 14 -10 12 0 21 -4 21 -9 0 -7 26 -20 52 -25 4 0 13 -7 20 -13 6
-7 20 -13 30 -13 10 0 18 -4 18 -10 0 -5 9 -10 20 -10 11 0 20 -5 20 -11 0 -5
5 -7 10 -4 6 3 10 1 10 -5 0 -6 5 -8 10 -5 6 3 10 2 10 -3 0 -9 37 -25 53 -23
4 1 7 -4 7 -10 0 -6 6 -9 14 -6 8 3 17 -1 20 -9 3 -9 10 -13 15 -10 5 4 11 3
13 -1 4 -10 100 -57 111 -55 4 1 7 -3 7 -9 0 -5 5 -7 10 -4 6 3 10 1 10 -5 0
-6 5 -8 10 -5 6 3 10 1 10 -5 0 -6 4 -9 9 -6 5 3 14 -1 21 -9 7 -8 16 -12 21
-9 5 3 9 0 9 -6 0 -6 5 -8 10 -5 6 3 10 1 10 -5 0 -6 5 -8 10 -5 6 3 13 -1 16
-10 4 -9 13 -14 20 -11 9 3 14 -1 14 -12 0 -15 2 -15 10 -2 6 9 10 10 10 3 0
-11 25 -24 44 -22 5 0 13 -6 18 -15 5 -9 19 -16 30 -16 12 0 18 -3 14 -7 -3
-4 12 -15 34 -25 22 -10 40 -23 40 -29 0 -6 5 -7 11 -3 6 3 14 3 18 -2 11 -16
52 -35 61 -29 6 4 10 0 10 -7 0 -11 94 -61 104 -55 2 1 13 -7 25 -17 12 -11
21 -16 21 -12 0 4 14 -2 30 -14 17 -12 30 -18 30 -14 0 4 8 0 18 -8 18 -15 46
-29 72 -34 8 -2 16 -8 18 -14 2 -5 8 -8 13 -4 5 3 9 0 9 -6 0 -6 5 -8 10 -5 6
3 10 2 10 -3 0 -4 16 -14 35 -22 19 -7 32 -17 29 -22 -4 -5 0 -8 7 -7 8 2 48
-15 89 -36 41 -21 77 -40 80 -40 16 -4 60 -29 60 -34 0 -4 10 -8 22 -8 13 -1
24 -7 26 -13 2 -5 11 -10 21 -10 9 0 27 -9 39 -20 14 -13 22 -16 22 -8 0 9 3
9 10 -2 5 -8 12 -12 15 -8 4 3 15 -2 26 -13 11 -11 24 -17 29 -14 6 4 10 1 10
-5 0 -6 5 -8 10 -5 6 3 10 1 10 -5 0 -6 5 -8 10 -5 6 3 10 1 10 -5 0 -6 5 -8
10 -5 6 3 10 1 10 -5 0 -6 4 -9 9 -6 5 3 14 -1 21 -9 6 -7 17 -12 25 -9 7 3
16 1 19 -4 7 -12 46 -4 46 10 0 5 5 6 10 3 6 -3 10 -1 10 5 0 6 4 8 10 5 5 -3
22 1 38 9 16 8 32 12 36 9 3 -4 6 -2 6 4 0 5 18 18 40 28 22 10 40 23 40 29 0
6 5 4 10 -4 6 -10 10 -11 10 -3 0 7 11 15 25 19 14 3 25 10 25 14 0 8 27 18
45 16 15 -2 16 -36 1 -42 -8 -3 -13 -15 -11 -27 2 -12 6 -62 10 -112 8 -117
30 -381 40 -495 2 -25 7 -88 10 -140 3 -52 8 -108 10 -125 2 -16 7 -66 10
-110 3 -44 7 -102 10 -130 2 -27 7 -88 11 -135 3 -47 9 -122 13 -167 6 -73 5
-82 -11 -86 -10 -3 -18 -1 -18 3 0 5 -13 5 -30 0 -16 -5 -32 -5 -35 0 -3 4
-21 4 -40 0 -19 -4 -37 -5 -40 -1 -5 9 -36 8 -53 -3 -6 -4 -18 -4 -24 1 -17
10 -29 11 -54 2 -11 -4 -27 -4 -34 1 -7 4 -26 4 -41 0 -17 -5 -31 -5 -35 1 -4
6 -11 6 -19 -1 -9 -8 -15 -8 -20 0 -4 6 -12 7 -24 0 -12 -6 -22 -5 -29 2 -9 9
-12 9 -12 -2 0 -11 -3 -11 -12 -2 -7 7 -17 8 -29 2 -11 -6 -20 -6 -24 -1 -3 6
-17 6 -35 1 -16 -5 -32 -5 -34 -1 -6 9 -37 8 -54 -3 -7 -4 -20 -2 -29 6 -9 7
-19 11 -22 9 -21 -13 -50 -18 -61 -11 -7 4 -26 4 -41 0 -17 -5 -31 -5 -35 1
-4 6 -11 6 -19 -1 -9 -8 -15 -8 -20 0 -4 6 -12 7 -24 0 -12 -6 -22 -5 -29 2
-9 9 -12 9 -12 -2 0 -11 -3 -11 -12 -2 -7 7 -17 8 -29 2 -12 -7 -20 -6 -24 0
-5 8 -11 8 -20 0 -7 -6 -16 -7 -19 -2 -3 5 -26 6 -51 2 -25 -4 -45 -4 -45 0 0
4 -20 4 -45 0 -25 -4 -47 -4 -50 -2 -8 9 -45 9 -45 1 0 -6 -29 -5 -37 1 -7 6
-30 5 -49 -1 -11 -4 -27 -4 -34 1 -7 4 -26 4 -41 0 -17 -5 -31 -5 -35 1 -4 6
-11 6 -19 -1 -9 -8 -15 -8 -20 0 -4 6 -12 7 -24 0 -12 -6 -22 -5 -29 2 -9 9
-12 9 -12 -2 0 -11 -3 -11 -12 -2 -7 7 -17 8 -29 2 -11 -6 -20 -6 -24 -1 -3 6
-17 6 -34 1 -16 -4 -32 -5 -35 -2 -9 8 -46 10 -46 2 0 -8 -32 -6 -47 3 -6 4
-22 3 -35 -2 -14 -5 -31 -6 -38 -1 -7 4 -26 4 -41 0 -16 -5 -31 -5 -34 0 -3 4
-21 4 -40 0 -19 -4 -37 -5 -40 -1 -5 9 -36 8 -53 -3 -6 -4 -18 -4 -24 1 -17
10 -29 11 -54 2 -11 -4 -27 -4 -34 1 -7 4 -26 4 -41 0 -16 -5 -31 -5 -33 -1
-6 9 -37 8 -54 -3 -7 -4 -19 -3 -27 4 -9 8 -15 8 -20 0 -3 -6 -12 -7 -18 -3
-16 10 -39 10 -54 0 -6 -4 -14 -3 -18 3 -5 8 -11 8 -21 -1 -11 -9 -17 -9 -28
0 -10 9 -16 9 -21 1 -4 -6 -12 -7 -18 -3 -11 7 -33 9 -47 3 -15 -6 -51 -6 -55
0 -3 4 -23 4 -45 0 -22 -4 -40 -4 -40 0 0 4 -20 4 -45 0 -25 -4 -47 -4 -50 -2
-8 9 -45 9 -45 1 0 -6 -29 -5 -37 1 -7 6 -30 5 -49 -1 -11 -4 -27 -4 -34 1 -7
4 -26 4 -41 0 -17 -5 -31 -5 -35 1 -4 6 -11 6 -19 -1 -9 -8 -15 -8 -20 0 -4 6
-12 7 -24 0 -12 -6 -22 -5 -29 2 -9 9 -12 9 -12 -2 0 -11 -3 -11 -12 -2 -7 7
-17 8 -29 2 -11 -6 -20 -6 -23 -1 -7 10 -25 9 -44 -3 -7 -4 -19 -3 -27 4 -9 8
-15 8 -20 0 -4 -6 -12 -7 -18 -3 -15 10 -38 10 -54 0 -6 -4 -15 -3 -18 3 -5 8
-11 7 -21 -1 -11 -9 -17 -9 -28 0 -10 9 -16 9 -21 1 -4 -6 -12 -7 -18 -3 -11
8 -30 9 -49 3 -10 -2 -67 -3 -70 0 -8 5 -48 6 -48 0 0 -8 -32 -6 -47 3 -6 4
-22 3 -35 -2 -14 -5 -31 -6 -38 -1 -7 4 -26 4 -41 0 -16 -5 -31 -5 -34 0 -3 4
-21 4 -40 0 -19 -4 -37 -5 -40 -1 -5 9 -36 8 -53 -3 -6 -4 -18 -4 -24 1 -17
10 -29 11 -54 2 -11 -4 -27 -4 -34 1 -7 4 -26 4 -41 0 -16 -5 -31 -5 -33 -1
-6 9 -37 8 -54 -3 -7 -4 -19 -3 -27 4 -9 8 -15 8 -20 0 -4 -6 -12 -7 -18 -3
-15 10 -38 10 -54 0 -6 -4 -15 -3 -18 3 -5 8 -11 7 -21 -1 -11 -9 -17 -9 -28
0 -10 9 -16 9 -21 1 -4 -6 -12 -7 -18 -3 -11 7 -33 9 -47 3 -15 -6 -51 -6 -55
0 -3 4 -23 4 -45 0 -22 -4 -40 -4 -40 0 0 4 -20 4 -45 0 -25 -4 -47 -4 -50 -2
-8 9 -45 9 -45 1 0 -6 -29 -5 -37 1 -7 6 -30 5 -49 -1 -11 -4 -27 -4 -34 1 -7
4 -26 4 -41 0 -17 -5 -31 -5 -35 1 -4 6 -11 6 -19 -1 -9 -8 -15 -8 -20 0 -4 6
-12 7 -24 0 -12 -6 -22 -5 -29 2 -9 9 -12 9 -12 -2 0 -11 -3 -11 -12 -2 -7 7
-17 8 -29 2 -11 -6 -20 -6 -23 -1 -7 10 -25 9 -44 -3 -7 -4 -19 -3 -27 4 -9 8
-15 8 -20 0 -3 -6 -12 -7 -18 -3 -16 10 -39 10 -54 0 -6 -4 -14 -3 -18 3 -5 8
-11 8 -21 -1 -11 -9 -17 -9 -28 0 -10 8 -16 9 -21 1 -3 -6 -12 -7 -18 -3 -16
10 -39 10 -54 0 -6 -4 -14 -3 -18 3 -5 8 -11 8 -21 -1 -11 -9 -17 -9 -28 0
-10 9 -16 9 -21 1 -4 -6 -12 -7 -18 -3 -15 10 -38 10 -54 0 -6 -4 -15 -3 -18
3 -5 8 -11 7 -21 -1 -11 -9 -17 -9 -28 0 -10 9 -16 9 -21 1 -4 -6 -12 -7 -18
-3 -11 7 -33 9 -47 3 -15 -6 -51 -6 -55 0 -3 4 -23 4 -45 0 -22 -4 -40 -4 -40
0 0 4 -20 4 -45 0 -25 -4 -47 -4 -51 -1 -8 9 -38 7 -45 -2 -8 -11 -41 22 -34
33 3 4 7 36 10 71 3 35 7 84 10 109 3 25 7 72 10 105 3 33 8 80 10 105 3 25 7
77 10 115 3 39 7 84 9 100 2 17 7 64 11 105 3 41 8 91 10 110 2 19 7 69 10
110 3 41 8 91 10 110 2 19 7 69 10 110 6 75 16 119 40 175 20 47 28 68 32 89
6 32 20 50 41 51 12 1 23 -4 26 -12 3 -7 14 -13 24 -13 10 0 27 -8 38 -17 10
-10 28 -19 39 -21 29 -4 39 -7 52 -15 6 -4 14 -3 18 3 3 5 15 10 25 10 10 0
20 5 22 10 2 6 13 12 26 13 12 0 22 4 22 8 0 7 40 19 53 16 5 -1 13 6 18 16 6
9 14 15 20 12 5 -4 9 -1 9 6 0 7 3 9 6 6 4 -4 19 2 34 13 15 11 30 17 34 13 3
-3 6 -1 6 6 0 7 4 10 9 7 8 -5 67 20 81 34 10 10 125 64 133 62 4 -1 10 4 13
12 3 8 12 12 19 10 7 -3 21 4 31 15 11 10 31 22 47 26 15 4 27 11 27 16 0 5 8
9 18 9 10 0 28 9 40 20 13 12 22 16 22 8 0 -8 4 -7 13 3 6 8 37 26 67 39 30
13 62 30 71 37 8 7 23 13 32 13 9 0 17 5 17 11 0 5 5 7 10 4 6 -3 10 -2 10 4
0 5 14 12 30 16 17 4 30 11 30 17 0 6 3 9 6 5 4 -3 22 5 42 18 19 13 39 22 44
19 4 -3 8 0 8 6 0 6 5 8 10 5 6 -3 10 -1 10 5 0 7 6 10 14 7 8 -3 17 1 20 9 3
8 12 14 21 14 8 0 15 4 15 9 0 8 41 24 65 25 6 1 19 10 31 21 20 20 36 27 62
28 6 0 12 4 12 9 0 4 7 8 15 8 8 0 15 4 15 10 0 5 3 9 8 8 8 -2 104 43 112 53
3 3 22 12 43 20 20 7 37 17 37 21 0 4 3 7 8 6 4 -1 19 6 34 16 15 10 32 15 38
11 5 -3 10 -1 10 4 0 6 7 11 15 11 8 0 15 5 15 11 0 6 7 9 15 5 8 -3 15 -2 15
3 0 5 27 20 60 35 33 15 60 32 60 37 0 6 4 8 9 4 5 -3 32 8 59 24 28 16 53 27
56 24 3 -4 6 -1 6 6 0 7 5 9 10 6 6 -3 10 -2 10 2 0 5 21 20 48 33 53 27 50
25 80 35 12 4 22 12 22 17 0 6 7 8 15 4 8 -3 15 -2 15 2 0 4 64 39 143 77 78
39 145 74 148 78 3 5 10 9 15 9 5 0 27 10 49 21 22 11 46 22 54 23 8 2 18 10
23 18 5 9 11 16 14 16 3 0 2 -6 -2 -12z m3426 -2323 c5 -11 23 -65 40 -120 18
-55 36 -109 40 -120 17 -40 50 -145 50 -159 0 -7 -9 -16 -20 -19 -11 -3 -20
-2 -20 1 0 4 -11 7 -25 7 -14 0 -25 -3 -25 -7 0 -15 -36 5 -36 20 -1 25 -15
211 -19 252 -2 19 -6 80 -9 135 -4 80 -3 93 5 65 6 -19 15 -44 19 -55z m-6757
-227 c-3 -35 -8 -90 -12 -123 l-6 -60 -42 -6 c-41 -5 -42 -5 -30 15 7 12 19
41 27 66 7 25 17 50 20 55 4 6 15 34 24 63 10 28 19 52 21 52 1 0 0 -28 -2
-62z m1592 -348 c-3 -5 -12 -10 -18 -10 -7 0 -6 4 3 10 19 12 23 12 15 0z
m150 -8 c-3 -3 -11 0 -18 7 -9 10 -8 11 6 5 10 -3 15 -9 12 -12z m480 8 c3 -5
1 -10 -4 -10 -6 0 -11 5 -11 10 0 6 2 10 4 10 3 0 8 -4 11 -10z m330 0 c-3 -5
-12 -10 -18 -10 -7 0 -6 4 3 10 19 12 23 12 15 0z m150 -8 c-3 -3 -11 0 -18 7
-9 10 -8 11 6 5 10 -3 15 -9 12 -12z m570 8 c-3 -5 -12 -10 -18 -10 -7 0 -6 4
3 10 19 12 23 12 15 0z m150 -8 c-3 -3 -11 0 -18 7 -9 10 -8 11 6 5 10 -3 15
-9 12 -12z m90 8 c-3 -5 -12 -10 -18 -10 -7 0 -6 4 3 10 19 12 23 12 15 0z
m150 -8 c-3 -3 -11 0 -18 7 -9 10 -8 11 6 5 10 -3 15 -9 12 -12z m480 8 c3 -5
1 -10 -4 -10 -6 0 -11 5 -11 10 0 6 2 10 4 10 3 0 8 -4 11 -10z m330 0 c-3 -5
-12 -10 -18 -10 -7 0 -6 4 3 10 19 12 23 12 15 0z m150 -8 c-3 -3 -11 0 -18 7
-9 10 -8 11 6 5 10 -3 15 -9 12 -12z m330 8 c-3 -5 -12 -10 -18 -10 -7 0 -6 4
3 10 19 12 23 12 15 0z m320 0 c-3 -5 -12 -10 -18 -10 -7 0 -6 4 3 10 19 12
23 12 15 0z m790 0 c3 -5 1 -10 -4 -10 -6 0 -11 5 -11 10 0 6 2 10 4 10 3 0 8
-4 11 -10z m600 -8 c-3 -3 -11 0 -18 7 -9 10 -8 11 6 5 10 -3 15 -9 12 -12z
m560 -211 c3 -5 1 -12 -4 -15 -5 -3 -11 1 -15 9 -6 16 9 21 19 6z"/>
</g>
</svg>
